<svg id="Layer_1" data-name="Layer 1" xmlns="http://www.w3.org/2000/svg" viewBox="0 0 3522.69 648">
  <defs>
    <style>
      .cls-1 {
        fill: #44ab48;
      }

      .cls-1, .cls-2, .cls-3, .cls-4, .cls-5, .cls-6, .cls-7 {
        stroke-width: 0px;
      }

      .cls-2 {
        fill: #231f20;
      }

      .cls-3 {
        fill: #074c72;
      }

      .cls-4, .cls-5 {
        fill: #ed1c24;
      }

      .cls-5 {
        opacity: .5;
      }

      .cls-6 {
        fill: #fff;
      }

      .cls-7 {
        fill: #fecb2a;
      }
    </style>
  </defs>
  <g>
    <path class="cls-2" d="M792,462.91V184.7h163.79c37.35,0,66.28,8.03,86.79,24.1,20.5,16.07,30.76,40.03,30.76,71.9s-10.26,54.21-30.76,70.14c-20.51,15.94-49.44,23.9-86.79,23.9h-85.42v88.16h-78.37ZM951.87,242.69h-81.5v76.02h81.5c15.41,0,26.64-2.94,33.7-8.82s10.58-14.43,10.58-25.67v-4.7c0-12.54-3.53-21.81-10.58-27.82-7.05-6.01-18.29-9.01-33.7-9.01Z"/>
    <path class="cls-2" d="M1103.11,462.91V184.7h78.37v278.2h-78.37Z"/>
    <path class="cls-2" d="M1388.76,468c-33.44,0-63.15-5.94-89.14-17.83-26-11.88-46.37-28.6-61.13-50.16-14.76-21.55-22.14-46.95-22.14-76.21s7.38-54.59,22.14-76.02c14.76-21.42,35.13-38.01,61.13-49.76,25.99-11.76,55.7-17.63,89.14-17.63,29.25,0,54.99,4.18,77.19,12.54,22.2,8.36,40.49,19.79,54.86,34.29,14.36,14.5,24.03,30.76,29,48.78l-70.14,16.85c-5.49-13.58-12.8-24.23-21.94-31.93-9.15-7.7-19.53-13.13-31.15-16.26-11.63-3.13-23.84-4.7-36.64-4.7-17.24,0-33.05,2.94-47.41,8.82-14.37,5.88-25.8,14.69-34.29,26.45-8.49,11.76-12.73,26.64-12.73,44.67v7.84c0,17.77,4.24,32.59,12.73,44.47,8.49,11.89,19.92,20.77,34.29,26.64,14.36,5.88,30.17,8.82,47.41,8.82,12.8,0,25.01-1.57,36.64-4.7,11.62-3.13,22-8.55,31.15-16.26,9.14-7.7,16.46-18.35,21.94-31.93l70.14,16.85c-4.97,18.02-14.63,34.29-29,48.78-14.37,14.5-32.66,26.06-54.86,34.68-22.21,8.62-47.94,12.93-77.19,12.93Z"/>
    <path class="cls-2" d="M1580.37,462.91V184.7h78.37v121.86l126.96-121.86h95.61l-119.51,114.42,120.69,163.79h-94.04l-83.07-115.98-46.63,44.28v71.71h-78.37Z"/>
    <path class="cls-2" d="M1900.1,462.91V184.7h78.37v110.11h140.28v-110.11h78.37v278.2h-78.37v-110.11h-140.28v110.11h-78.37Z"/>
    <path class="cls-2" d="M2219.05,462.91l135.58-278.2h83.07l135.58,278.2h-83.46l-30.56-65.83h-131.27l-30.17,65.83h-78.76ZM2353.06,343.79h81.89l-40.75-87.77-41.14,87.77Z"/>
    <path class="cls-2" d="M2734.71,468c-33.44,0-63.15-5.94-89.14-17.83-26-11.88-46.37-28.6-61.13-50.16-14.76-21.55-22.14-46.95-22.14-76.21s7.38-54.59,22.14-76.02c14.76-21.42,35.13-38.01,61.13-49.76,25.99-11.76,55.7-17.63,89.14-17.63,29.25,0,54.99,4.18,77.19,12.54,22.2,8.36,40.49,19.79,54.86,34.29,14.36,14.5,24.03,30.76,29,48.78l-70.14,16.85c-5.49-13.58-12.8-24.23-21.94-31.93-9.15-7.7-19.53-13.13-31.15-16.26-11.63-3.13-23.84-4.7-36.64-4.7-17.24,0-33.05,2.94-47.41,8.82-14.37,5.88-25.8,14.69-34.29,26.45-8.49,11.76-12.73,26.64-12.73,44.67v7.84c0,17.77,4.24,32.59,12.73,44.47,8.49,11.89,19.92,20.77,34.29,26.64,14.36,5.88,30.17,8.82,47.41,8.82,12.8,0,25.01-1.57,36.64-4.7,11.62-3.13,22-8.55,31.15-16.26,9.14-7.7,16.46-18.35,21.94-31.93l70.14,16.85c-4.97,18.02-14.63,34.29-29,48.78-14.37,14.5-32.66,26.06-54.86,34.68-22.21,8.62-47.94,12.93-77.19,12.93Z"/>
    <path class="cls-2" d="M2926.32,462.91V184.7h78.37v121.86l126.96-121.86h95.61l-119.51,114.42,120.69,163.79h-94.04l-83.07-115.98-46.63,44.28v71.71h-78.37Z"/>
    <path class="cls-2" d="M3371.45,467.61c-24.29,0-46.89-2.42-67.79-7.25-20.9-4.83-39.06-12.93-54.47-24.29-15.42-11.36-27.3-26.71-35.66-46.04l70.14-20.77c5.22,9.4,11.42,17.04,18.61,22.92,7.18,5.88,16.65,10.19,28.41,12.93s26.9,4.11,45.45,4.11c22.73,0,39.97-2.48,51.72-7.44,11.76-4.96,17.63-11.36,17.63-19.2,0-6.01-2.88-11.1-8.62-15.28-5.75-4.18-16.72-7.18-32.91-9.01l-75.62-9.4c-35.01-4.44-61.13-13.06-78.37-25.86-17.24-12.8-25.86-30.56-25.86-53.29,0-20.11,6.01-36.77,18.02-49.96,12.01-13.19,29.06-23.12,51.13-29.78,22.07-6.66,47.87-9.99,77.39-9.99,21.42,0,41.86,2.22,61.32,6.66,19.46,4.44,36.83,12.02,52.11,22.73,15.28,10.71,27.36,25.73,36.24,45.06l-67,20.77c-7.84-14.63-18.88-24.42-33.11-29.39-14.24-4.96-32.85-7.44-55.84-7.44-19.33,0-34.81,2.03-46.43,6.07-11.63,4.05-17.44,9.86-17.44,17.44,0,6.53,3.2,11.76,9.6,15.67,6.4,3.92,16.91,6.8,31.54,8.62l83.07,10.19c33.96,4.18,58.78,12.93,74.45,26.25,15.67,13.32,23.51,30.96,23.51,52.9,0,20.38-6.27,37.42-18.81,51.13-12.54,13.71-30.17,23.97-52.9,30.76-22.73,6.79-49.24,10.19-79.54,10.19Z"/>
  </g>
  <path class="cls-1" d="M375.16,196.97L0,572.14V36C0,16.12,16.11,0,36,0h178.71l160.62,183.57-.42.42c-3.52,3.52-3.52,9.22,0,12.73l.25.25Z"/>
  <polygon class="cls-5" points="521.53 203.34 521.52 203.35 521.35 203.16 521.53 203.34"/>
  <path class="cls-3" d="M648,36v311.91l-120.78-138.04.42-.42c3.52-3.52,3.52-9.21,0-12.73l-76.36-76.37c-3.52-3.51-9.22-3.51-12.73,0l-.43.43L300.09,0h311.91c19.88,0,36,16.12,36,36Z"/>
  <path class="cls-7" d="M464.43,272.66l183.57,160.63v178.71c0,19.88-16.12,36-36,36H76.87l374.67-374.67c3.52,3.27,9.03,3.19,12.46-.24l.43-.43Z"/>
  <polygon class="cls-6" points="521.53 203.34 521.52 203.35 521.35 203.16 521.53 203.34"/>
  <polygon class="cls-6" points="521.53 203.34 521.52 203.35 521.35 203.16 521.53 203.34"/>
  <polygon class="cls-4" points="521.54 204.48 521.53 204.5 521.29 204.23 521.54 204.48"/>
  <polygon class="cls-6" points="521.54 204.48 521.53 204.5 521.29 204.23 521.54 204.48"/>
  <polygon class="cls-6" points="521.54 204.48 521.53 204.5 521.29 204.23 521.54 204.48"/>
</svg>
